<?xml version="1.0" encoding="UTF-8"?>
<svg width="145px" height="152px" viewBox="0 0 145 152" version="1.1" xmlns="http://www.w3.org/2000/svg" xmlns:xlink="http://www.w3.org/1999/xlink">
    <title>Shape</title>
    <g id="Page-1" stroke="none" stroke-width="1" fill="none" fill-rule="evenodd">
        <g id="notion-seeklogo.com" transform="translate(0.100000, 0.746820)" fill="#000000" fill-rule="nonzero">
            <path d="M24.9,26.3531796 C29.6,30.1531796 31.3,29.8531796 40.1,29.2531796 L123,24.2531796 C124.8,24.2531796 123.3,22.4531796 122.7,22.2531796 L108.9,12.3531796 C106.3,10.3531796 102.7,7.95317957 96,8.55317957 L15.8,14.4531796 C12.9,14.7531796 12.3,16.2531796 13.5,17.3531796 L24.9,26.3531796 Z M29.9,45.6531796 L29.9,132.85318 C29.9,137.55318 32.2,139.25318 37.5,138.95318 L128.6,133.65318 C133.9,133.35318 134.5,130.15318 134.5,126.35318 L134.5,39.7531796 C134.5,35.9531796 133,33.8531796 129.8,34.1531796 L34.6,39.7531796 C31.1,40.0531796 29.9,41.8531796 29.9,45.6531796 L29.9,45.6531796 Z M119.8,50.3531796 C120.4,52.9531796 119.8,55.6531796 117.2,55.9531796 L112.8,56.8531796 L112.8,121.25318 C109,123.25318 105.5,124.45318 102.5,124.45318 C97.8,124.45318 96.6,122.95318 93.1,118.55318 L64.4,73.4531796 L64.4,117.05318 L73.5,119.05318 C73.5,119.05318 73.5,124.35318 66.2,124.35318 L46,125.55318 C45.4,124.35318 46,121.45318 48,120.85318 L53.3,119.35318 L53.3,61.7531796 L46,61.1531796 C45.4,58.5531796 46.9,54.7531796 51,54.4531796 L72.7,52.9531796 L102.6,98.5531796 L102.6,58.2531796 L95,57.3531796 C94.4,54.1531796 96.8,51.7531796 99.7,51.4531796 L119.8,50.3531796 Z M9.1,6.45317957 L92.6,0.35317957 C102.8,-0.54682043 105.5,0.0531795699 111.9,4.75317957 L138.5,23.4531796 C142.9,26.6531796 144.4,27.5531796 144.4,31.0531796 L144.4,133.75318 C144.4,140.15318 142.1,143.95318 133.9,144.55318 L37,150.45318 C30.8,150.75318 27.9,149.85318 24.7,145.75318 L5,120.25318 C1.5,115.55318 -1.42108547e-14,112.05318 -1.42108547e-14,107.95318 L-1.42108547e-14,16.6531796 C-1.42108547e-14,11.3531796 2.4,7.05317957 9.1,6.45317957 Z" id="Shape"></path>
        </g>
    </g>
</svg>